<svg width="24" height="24" viewBox="0 0 24 24" fill="none" xmlns="http://www.w3.org/2000/svg">
<path fill-rule="evenodd" clip-rule="evenodd" d="M12 6.5C12.2761 6.5 12.5 6.72386 12.5 7V17C12.5 17.2761 12.2761 17.5 12 17.5C11.7239 17.5 11.5 17.2761 11.5 17V7C11.5 6.72386 11.7239 6.5 12 6.5Z" fill="black"/>
<path fill-rule="evenodd" clip-rule="evenodd" d="M17.5 12C17.5 12.2761 17.2761 12.5 17 12.5L7 12.5C6.72386 12.5 6.5 12.2761 6.5 12C6.5 11.7239 6.72386 11.5 7 11.5L17 11.5C17.2761 11.5 17.5 11.7239 17.5 12Z" fill="black"/>
<rect x="0.5" y="0.5" width="23" height="23" rx="6.5" stroke="black"/>
</svg>
