<svg width="115" height="32" viewBox="0 0 115 32" fill="none" xmlns="http://www.w3.org/2000/svg">
<path d="M5.92155 0.110936C3.56693 1.07745 0.977773 3.80511 0.160554 7.23592C-0.876277 11.5791 3.43434 13.4132 3.78654 12.8148C4.20096 12.1051 3.01165 11.8669 2.76879 9.61486C2.45631 6.7027 3.83297 3.44907 5.57016 2.0214C5.8942 1.76043 5.87848 2.12872 5.87848 2.80762C5.87848 4.03199 5.80886 14.9863 5.80886 17.2733C5.80886 20.3692 5.67957 21.344 5.44087 22.3066C5.20628 23.2855 4.82673 23.9456 5.11267 24.2025C5.43671 24.4862 6.81337 23.8106 7.6115 22.718C8.56628 21.409 8.90275 19.8359 8.96491 18.1286C9.03534 16.0725 9.03124 12.8034 9.03534 10.9425C9.03534 9.23109 9.06269 4.22791 9.00799 1.21574C8.99226 0.479224 6.90368 -0.292353 5.92155 0.110936ZM114.48 16.3636C114.144 16.3636 113.984 16.7091 113.855 17.2888C113.409 19.3107 112.94 19.7668 112.333 19.7668C111.657 19.7668 111.05 18.7661 110.89 16.7628C110.769 15.1896 110.788 12.2889 110.945 9.40352C110.976 8.81249 110.811 8.22628 109.192 7.64665C108.492 7.40111 107.479 7.03282 106.975 8.22957C105.547 11.6027 104.991 14.288 104.858 15.3742C104.855 15.4311 104.784 15.4393 104.772 15.3091C104.691 14.4376 104.503 12.8531 104.479 9.52224C104.471 8.87835 104.334 8.3214 103.599 7.8686C103.126 7.57751 101.686 7.05556 101.166 7.67348C100.72 8.17994 100.2 9.53846 99.6565 11.1498C99.218 12.462 98.9131 13.3523 98.9131 13.3523C98.9131 13.3523 98.9162 9.81407 98.9247 8.47103C98.9247 7.96451 98.5725 7.79622 98.4672 7.76531C97.9857 7.62714 97.035 7.40111 96.6364 7.40111C96.1399 7.40111 96.0223 7.67348 96.0223 8.0686C96.0223 8.11817 95.9402 12.7222 95.9402 15.9417V16.3945C95.67 17.8758 94.7791 19.8863 93.8127 19.8863C92.8463 19.8863 92.3888 19.0457 92.3888 15.2091C92.3888 12.9718 92.4593 11.9978 92.4907 10.3783C92.5098 9.44578 92.5487 8.72871 92.5454 8.56371C92.5371 8.0686 91.657 7.81494 91.25 7.72305C90.8397 7.62714 90.4834 7.59623 90.2024 7.60763C89.8112 7.63116 89.5336 7.88403 89.5336 8.23768V8.77426C89.0288 7.99214 88.2108 7.44665 87.6638 7.2897C86.201 6.86373 84.671 7.24336 83.5173 8.82384C82.6023 10.0832 82.0503 11.5059 81.8357 13.5515C81.6749 15.0482 81.7263 16.5636 82.0114 17.8449C81.6674 19.2912 81.0333 19.8863 80.3413 19.8863C79.3318 19.8863 78.605 18.2742 78.6871 15.4847C78.7459 13.6515 79.1172 12.3661 79.5275 10.5011C79.704 9.70675 79.559 9.29298 79.2034 8.88969C78.8785 8.52872 78.1823 8.34091 77.1853 8.56695C76.4767 8.73201 75.4564 8.90841 74.5289 9.04334C74.5289 9.04334 74.5836 8.82384 74.6309 8.43689C74.8696 6.40679 72.6202 6.57185 71.9042 7.22062C71.474 7.60763 71.1806 8.06451 71.0712 8.88566C70.8955 10.1905 71.9787 10.8043 71.9787 10.8043C71.6232 12.4003 70.7546 14.4872 69.8512 15.9953C69.3696 16.8051 69.0016 17.4002 68.5251 18.0368C68.5208 17.8026 68.5208 17.5644 68.5208 17.3311C68.5125 13.9734 68.5556 11.3303 68.5755 10.3783C68.5954 9.44578 68.6343 8.74743 68.6343 8.58237C68.6261 8.2214 68.4114 8.07994 67.9572 7.91086C67.5585 7.75799 67.0853 7.64665 66.5963 7.60763C65.9822 7.56208 65.6067 7.88403 65.6183 8.26372V8.77426C65.1102 7.99214 64.2922 7.44665 63.7527 7.2897C62.2857 6.86373 60.7565 7.24336 59.6029 8.82384C58.6912 10.0832 58.0886 11.8442 57.9163 13.532C57.7604 15.1132 57.7878 16.4481 58.0066 17.5766C57.772 18.7042 57.1032 19.8863 56.3449 19.8863C55.3784 19.8863 54.8265 19.0457 54.8265 15.2091C54.8265 12.9718 54.897 11.9978 54.9326 10.3783C54.9517 9.44578 54.9873 8.72871 54.9831 8.56371C54.9789 8.0686 54.0996 7.81494 53.6886 7.72305C53.2625 7.62385 52.8904 7.59299 52.6086 7.60763C52.2331 7.63848 51.9713 7.96451 51.9713 8.21409V8.77426C51.4632 7.99214 50.6452 7.44665 50.1015 7.2897C48.6387 6.86373 47.1211 7.25153 45.9591 8.82384C45.2008 9.84907 44.5866 10.9881 44.2701 13.5132C44.1838 14.2425 44.1408 14.9246 44.1449 15.562C43.8432 17.3725 42.5097 19.4603 41.4223 19.4603C40.7808 19.4603 40.1708 18.2473 40.1708 15.6579C40.1708 12.2125 40.3896 7.30111 40.4286 6.8255C40.4286 6.8255 41.8052 6.8019 42.0754 6.79867C42.7599 6.79459 43.3857 6.81007 44.2974 6.76373C44.759 6.74099 45.2008 5.12552 44.7234 4.92229C44.5121 4.83363 42.9945 4.75314 42.392 4.7418C41.8839 4.7304 40.4791 4.62717 40.4791 4.62717C40.4791 4.62717 40.6051 1.36946 40.6325 1.028C40.6556 0.736112 40.2802 0.590626 40.0614 0.501968C39.5326 0.280019 39.0594 0.175996 38.5041 0.0645946C37.7258 -0.092294 37.3777 0.0613629 37.3114 0.701173C37.2095 1.67269 37.1548 4.51985 37.1548 4.51985C36.5837 4.51985 34.6477 4.40766 34.0799 4.40766C33.5528 4.40766 32.9809 6.63361 33.7128 6.66044C34.554 6.69136 36.0127 6.72227 36.9824 6.74825C36.9824 6.74825 36.9393 11.7409 36.9393 13.2791V13.7547C36.4039 16.4823 34.5299 17.9563 34.5299 17.9563C34.9327 16.149 34.1114 14.7945 32.6254 13.6515C32.0775 13.2254 30.9984 12.423 29.7892 11.5523C29.7892 11.5523 30.4895 10.8734 31.1111 9.51493C31.5496 8.55152 31.5695 7.44336 30.4895 7.20111C28.706 6.79867 27.239 8.08403 26.7972 9.45718C26.4608 10.5165 26.6373 11.3067 27.3053 12.1238L27.4578 12.3084C27.0592 13.0677 26.5038 14.0921 26.0381 14.8864C24.736 17.0929 23.7539 18.8351 23.0146 18.8351C22.4203 18.8351 22.4278 17.0661 22.4278 15.4083C22.4278 13.9807 22.5372 11.8287 22.6234 9.60352C22.6508 8.87018 22.2753 8.44823 21.6463 8.0686C21.2625 7.83848 20.4486 7.38568 19.9754 7.38568C19.2717 7.38568 17.2295 7.47751 15.3018 12.945C15.0589 13.636 14.5815 14.8905 14.5815 14.8905L14.6247 8.31408C14.6247 8.16043 14.5426 8.01494 14.3512 7.91086C14.0262 7.73848 13.1543 7.38568 12.3877 7.38568C12.0155 7.38568 11.8316 7.55476 11.8316 7.88811L11.7694 18.1709C11.7694 18.9539 11.7885 19.8668 11.8672 20.266C11.9451 20.6652 12.0744 20.9912 12.2311 21.1863C12.3877 21.3749 12.5709 21.5205 12.8684 21.5855C13.1461 21.6432 14.6752 21.831 14.7539 21.2595C14.8517 20.5725 14.855 19.8327 15.6573 17.0588C16.9088 12.7457 18.5366 10.6433 19.3032 9.89456C19.44 9.7645 19.5925 9.75639 19.5842 9.97181C19.5494 10.9189 19.4358 13.2791 19.3579 15.2856C19.1507 20.6612 20.1436 21.6546 21.5717 21.6546C22.659 21.6546 24.1923 20.592 25.8391 17.9067C26.8677 16.2295 27.8614 14.5913 28.5808 13.4059C29.074 13.8579 29.6367 14.3457 30.1961 14.8677C31.499 16.0758 31.9251 17.227 31.6399 18.3173C31.4244 19.153 30.6073 20.0124 29.156 19.1766C28.7333 18.9343 28.5535 18.7465 28.1275 18.4701C27.9004 18.3205 27.5481 18.2783 27.3409 18.4319C26.7931 18.8351 26.4839 19.3449 26.3041 19.9782C26.1358 20.5961 26.7658 20.918 27.4188 21.2018C27.9783 21.4514 29.1834 21.67 29.9533 21.6969C32.9536 21.7969 35.3554 20.2774 37.0255 16.3636C37.3271 19.7441 38.5977 21.6587 40.8081 21.6587C42.29 21.6587 43.7728 19.7823 44.4225 17.9368C44.6057 18.6888 44.8833 19.3408 45.2398 19.8977C46.9454 22.5449 50.254 21.9774 51.9124 19.7286C52.4288 19.0303 52.5075 18.7807 52.5075 18.7807C52.7495 20.9034 54.4942 21.6505 55.492 21.6505C56.6142 21.6505 57.7646 21.1294 58.5735 19.3408C58.6713 19.5368 58.7733 19.7213 58.8909 19.8977C60.5924 22.5449 63.901 21.9774 65.5636 19.7286C65.6382 19.6173 65.7087 19.5254 65.7666 19.4368L65.8181 20.8335C65.8181 20.8335 64.8674 21.6855 64.2848 22.2107C61.7229 24.5172 59.7745 26.2668 59.6303 28.3001C59.4504 30.8976 61.5937 31.861 63.2206 31.987C64.942 32.122 66.4206 31.1895 67.3273 29.8773C68.1254 28.7261 68.6501 26.2513 68.6112 23.8034C68.5954 22.8213 68.5714 21.5782 68.5481 20.2392C69.4516 19.2189 70.4685 17.9213 71.4 16.4027C72.4203 14.7523 73.5077 12.5303 74.063 10.8003C74.063 10.8003 75.0136 10.8084 76.0231 10.7466C76.348 10.7271 76.4417 10.793 76.3787 11.023C76.3082 11.3027 75.104 15.8652 76.203 18.9042C76.958 20.9831 78.6513 21.6546 79.6607 21.6546C80.8376 21.6546 81.9648 20.7798 82.5665 19.4831C82.6411 19.6254 82.7157 19.7668 82.8019 19.8977C84.5034 22.5449 87.8004 21.9733 89.4746 19.7286C89.8541 19.2189 90.0655 18.7807 90.0655 18.7807C90.4252 20.9798 92.1698 21.6587 93.1669 21.6587C94.2112 21.6587 95.1966 21.2408 95.9989 19.3831C96.0304 20.201 96.0809 20.8685 96.1671 21.079C96.2176 21.2099 96.5152 21.3709 96.7266 21.4514C97.6805 21.7969 98.651 21.6319 99.0066 21.5587C99.2569 21.5091 99.4525 21.3172 99.4765 20.8107C99.5461 19.4831 99.5031 17.2539 99.9141 15.5929C100.606 12.8149 101.248 11.7369 101.553 11.2035C101.722 10.9035 101.917 10.8539 101.921 11.1686C101.932 11.8092 101.968 13.6896 102.237 16.2222C102.43 18.079 102.691 19.1798 102.895 19.5295C103.466 20.5229 104.177 20.5693 104.753 20.5693C105.121 20.5693 105.887 20.4693 105.82 19.8359C105.785 19.5295 105.844 17.6222 106.521 14.8832C106.966 13.0913 107.706 11.4759 107.972 10.8848C108.074 10.6661 108.117 10.8352 108.117 10.8694C108.058 12.1011 107.933 16.1335 108.441 18.3359C109.138 21.3254 111.144 21.6587 111.844 21.6587C113.334 21.6587 114.559 20.5457 114.969 17.6148C115.071 16.9083 114.922 16.3636 114.48 16.3636M51.9398 14.553C51.8577 16.1026 51.5485 17.4002 51.0562 18.34C50.1561 20.0473 48.385 20.5846 47.6059 18.1253C47.039 16.3489 47.2305 13.9237 47.4692 12.6148C47.8131 10.6734 48.6859 9.30023 50.0467 9.42621C51.4391 9.56121 52.1196 11.3222 51.9398 14.553ZM65.5869 14.5758C65.509 16.0375 65.122 17.5107 64.6993 18.34C63.8274 20.0587 62.004 20.596 61.249 18.1253C60.7335 16.4327 60.8544 14.2498 61.1122 12.8758C61.4454 11.088 62.2468 9.42621 63.6906 9.42621C65.0946 9.42621 65.7867 10.9384 65.5869 14.5758ZM65.9433 24.5667C65.9234 27.2415 65.4974 29.5821 64.5816 30.265C63.2754 31.2317 61.5192 30.5025 61.883 28.5537C62.2038 26.8269 63.7254 25.0659 65.9475 22.9131C65.9475 22.9131 65.9549 23.4041 65.9431 24.5667M89.5062 14.5912C89.4274 16.1993 89.0636 17.4538 88.6143 18.34C87.7416 20.0587 85.9348 20.5919 85.164 18.1253C84.7455 16.7782 84.7256 14.5294 85.0273 12.6539C85.3323 10.7425 86.1893 9.30023 87.6049 9.42621C89.0047 9.55712 89.6586 11.3222 89.5062 14.5912Z" fill="#231E1F"/>
</svg>
