<svg width="55" height="20" viewBox="0 0 55 20" fill="none" xmlns="http://www.w3.org/2000/svg">
<line x1="0.5" y1="0.5" x2="0.499999" y2="19.5" stroke="black"/>
<path d="M12 15.8644V4H17.2374C18.3895 4 19.3124 4.35593 20.006 5.0678C20.6996 5.77966 21.0465 6.64407 21.0465 7.66102C21.0465 8.57627 20.7643 9.35028 20.2 9.98305C19.6475 10.6045 18.9421 10.9944 18.0839 11.1525L21.1875 15.8644H19.7768L16.7789 11.2712H13.2873V15.8644H12ZM13.2873 10.1864H17.0082C17.8311 10.1864 18.5012 9.9548 19.0185 9.49153C19.5475 9.02825 19.812 8.41243 19.812 7.64407C19.812 6.9209 19.5828 6.31638 19.1243 5.83051C18.6776 5.34463 18.0486 5.10169 17.2374 5.10169H13.2873V10.1864Z" fill="black"/>
<path d="M27.0004 16C25.6602 16 24.5257 15.548 23.597 14.6441C22.6682 13.7288 22.2038 12.6328 22.2038 11.3559C22.2038 10.0678 22.6682 8.9774 23.597 8.08475C24.5375 7.18079 25.672 6.72881 27.0004 6.72881C28.2113 6.72881 29.2576 7.11864 30.1393 7.89831C31.0211 8.67797 31.5383 9.63842 31.6912 10.7797C31.7499 11.1864 31.7558 11.5198 31.7088 11.7797H23.4559C23.5264 12.7062 23.8968 13.4633 24.5669 14.0508C25.2487 14.6271 26.0599 14.9153 27.0004 14.9153C27.647 14.9153 28.2525 14.7684 28.8168 14.4746C29.3811 14.1808 29.8337 13.791 30.1746 13.3051L31.3208 13.5254C30.9446 14.2712 30.3568 14.8701 29.5574 15.322C28.7697 15.774 27.9174 16 27.0004 16ZM23.4559 10.8305H30.4744C30.3803 9.97175 30.0041 9.25424 29.3458 8.67797C28.6992 8.0904 27.9115 7.79661 26.9828 7.79661C26.0423 7.79661 25.2428 8.0904 24.5845 8.67797C23.9261 9.25424 23.5499 9.97175 23.4559 10.8305Z" fill="black"/>
<path d="M37.7636 16C36.4234 16 35.2889 15.548 34.3602 14.6441C33.4314 13.7288 32.967 12.6328 32.967 11.3559C32.967 10.0678 33.4314 8.9774 34.3602 8.08475C35.3007 7.18079 36.4351 6.72881 37.7636 6.72881C38.9745 6.72881 40.0208 7.11864 40.9025 7.89831C41.7842 8.67797 42.3015 9.63842 42.4544 10.7797C42.5131 11.1864 42.519 11.5198 42.472 11.7797H34.2191C34.2896 12.7062 34.6599 13.4633 35.3301 14.0508C36.0119 14.6271 36.8231 14.9153 37.7636 14.9153C38.4102 14.9153 39.0156 14.7684 39.5799 14.4746C40.1442 14.1808 40.5969 13.791 40.9378 13.3051L42.084 13.5254C41.7078 14.2712 41.12 14.8701 40.3206 15.322C39.5329 15.774 38.6806 16 37.7636 16ZM34.2191 10.8305H41.2376C41.1435 9.97175 40.7673 9.25424 40.109 8.67797C39.4624 8.0904 38.6747 7.79661 37.746 7.79661C36.8055 7.79661 36.006 8.0904 35.3477 8.67797C34.6893 9.25424 34.3131 9.97175 34.2191 10.8305Z" fill="black"/>
<path d="M44.2904 15.8644V4H45.5248V15.8644H44.2904Z" fill="black"/>
<path d="M51.4379 16C49.9918 16 48.6399 15.5424 47.3819 14.6271V13.2712C47.8169 13.7345 48.3989 14.1299 49.1277 14.4576C49.8566 14.7853 50.6208 14.9492 51.4202 14.9492C52.1491 14.9492 52.731 14.8023 53.166 14.5085C53.601 14.2147 53.8126 13.8588 53.8009 13.4407C53.8009 13.0678 53.5892 12.7458 53.166 12.4746C52.7428 12.2034 52.0315 11.9718 51.0323 11.7797C49.7861 11.5424 48.8691 11.2373 48.2813 10.8644C47.6935 10.4802 47.3996 9.9548 47.3996 9.28814C47.3996 8.49718 47.764 7.87571 48.4929 7.42373C49.2335 6.96045 50.0918 6.72881 51.0675 6.72881C52.3372 6.72881 53.5481 7.0904 54.7002 7.81356V9.01695C53.4893 8.18079 52.2784 7.76271 51.0675 7.76271C50.4092 7.76271 49.8331 7.90396 49.3394 8.18644C48.8456 8.45763 48.5987 8.82486 48.5987 9.28814C48.5987 9.70621 48.8221 10.0169 49.2688 10.2203C49.7156 10.4124 50.5032 10.6158 51.6318 10.8305C52.8545 11.0678 53.7186 11.4011 54.2241 11.8305C54.7296 12.2486 54.9882 12.7797 55 13.4237C55 14.2373 54.6649 14.8701 53.9948 15.322C53.3247 15.774 52.4724 16 51.4379 16Z" fill="black"/>
</svg>
